<mxfile host="app.diagrams.net" modified="2021-04-09T03:16:31.836Z" agent="5.0 (Windows NT 10.0; Win64; x64) AppleWebKit/537.36 (KHTML, like Gecko) Chrome/89.0.4389.114 Safari/537.36" etag="llJL_4kUzruVhBLDpjRu" version="14.4.8" type="github">
  <diagram name="Page-1" id="e7e014a7-5840-1c2e-5031-d8a46d1fe8dd">
    <mxGraphModel dx="2591" dy="738" grid="1" gridSize="10" guides="1" tooltips="1" connect="1" arrows="1" fold="1" page="1" pageScale="1" pageWidth="1169" pageHeight="826" background="#ffffff" math="0" shadow="0">
      <root>
        <mxCell id="0" />
        <mxCell id="1" parent="0" />
        <mxCell id="2" value="Login" style="swimlane;whiteSpace=wrap" parent="1" vertex="1">
          <mxGeometry x="164.5" y="128" width="305.5" height="570" as="geometry" />
        </mxCell>
        <mxCell id="x4MhJtF7cWT3_IlsjIcO-90" value="Member" style="rhombus;fillColor=#ffffc0;strokeColor=#ff0000;" vertex="1" parent="2">
          <mxGeometry x="175.5" y="79.5" width="80" height="40" as="geometry" />
        </mxCell>
        <mxCell id="x4MhJtF7cWT3_IlsjIcO-92" value="" style="shape=line;strokeWidth=6;strokeColor=#ff0000;rotation=90" vertex="1" parent="2">
          <mxGeometry x="-0.62" y="112.63" width="82.25" height="15" as="geometry" />
        </mxCell>
        <mxCell id="x4MhJtF7cWT3_IlsjIcO-126" value="Member&#xa;Login" style="" vertex="1" parent="2">
          <mxGeometry x="65.5" y="79.5" width="65" height="40" as="geometry" />
        </mxCell>
        <mxCell id="x4MhJtF7cWT3_IlsjIcO-127" value="Social&#xa;Login" style="" vertex="1" parent="2">
          <mxGeometry x="65.5" y="119.5" width="65" height="40" as="geometry" />
        </mxCell>
        <mxCell id="x4MhJtF7cWT3_IlsjIcO-128" value="" style="edgeStyle=elbowEdgeStyle;elbow=horizontal;verticalAlign=bottom;endArrow=open;endSize=8;strokeColor=#FF0000;endFill=1;rounded=0;entryX=0.001;entryY=0.429;entryDx=0;entryDy=0;entryPerimeter=0;exitX=0.213;exitY=0.527;exitDx=0;exitDy=0;exitPerimeter=0;" edge="1" parent="2" source="x4MhJtF7cWT3_IlsjIcO-92" target="x4MhJtF7cWT3_IlsjIcO-126">
          <mxGeometry x="71" y="-196" as="geometry">
            <mxPoint x="55.5" y="92" as="targetPoint" />
            <mxPoint x="40.5" y="107" as="sourcePoint" />
            <Array as="points">
              <mxPoint x="48" y="92" />
            </Array>
          </mxGeometry>
        </mxCell>
        <mxCell id="x4MhJtF7cWT3_IlsjIcO-131" value="" style="edgeStyle=elbowEdgeStyle;elbow=horizontal;verticalAlign=bottom;endArrow=open;endSize=8;strokeColor=#FF0000;endFill=1;rounded=0;entryX=0;entryY=0.5;entryDx=0;entryDy=0;exitX=0.735;exitY=0.574;exitDx=0;exitDy=0;exitPerimeter=0;" edge="1" parent="2" source="x4MhJtF7cWT3_IlsjIcO-92" target="x4MhJtF7cWT3_IlsjIcO-127">
          <mxGeometry x="-83.5" y="-314" as="geometry">
            <mxPoint x="75.56500000000005" y="106.66000000000003" as="targetPoint" />
            <mxPoint x="50.5" y="117" as="sourcePoint" />
            <Array as="points">
              <mxPoint x="46" y="132" />
            </Array>
          </mxGeometry>
        </mxCell>
        <mxCell id="x4MhJtF7cWT3_IlsjIcO-132" value="" style="edgeStyle=elbowEdgeStyle;elbow=horizontal;verticalAlign=bottom;endArrow=open;endSize=8;strokeColor=#FF0000;endFill=1;rounded=0;entryX=0;entryY=0.5;entryDx=0;entryDy=0;exitX=1;exitY=0.5;exitDx=0;exitDy=0;" edge="1" parent="2" source="x4MhJtF7cWT3_IlsjIcO-126" target="x4MhJtF7cWT3_IlsjIcO-90">
          <mxGeometry x="-83.5" y="-314" as="geometry">
            <mxPoint x="75.56499999999983" y="106.66000000000008" as="targetPoint" />
            <mxPoint x="50.100000000000364" y="106.52424999999994" as="sourcePoint" />
            <Array as="points">
              <mxPoint x="165.5" y="112" />
            </Array>
          </mxGeometry>
        </mxCell>
        <mxCell id="x4MhJtF7cWT3_IlsjIcO-134" value="" style="edgeStyle=elbowEdgeStyle;elbow=horizontal;verticalAlign=bottom;endArrow=open;endSize=8;strokeColor=#FF0000;endFill=1;rounded=0;exitX=1;exitY=0.5;exitDx=0;exitDy=0;" edge="1" parent="2">
          <mxGeometry x="-123" y="-442.29" as="geometry">
            <mxPoint x="335.5" y="99" as="targetPoint" />
            <mxPoint x="255.5" y="99.21000000000001" as="sourcePoint" />
            <Array as="points">
              <mxPoint x="290.5" y="111.71000000000001" />
            </Array>
          </mxGeometry>
        </mxCell>
        <mxCell id="x4MhJtF7cWT3_IlsjIcO-137" value="Sign In" style="" vertex="1" parent="2">
          <mxGeometry x="65.5" y="265" width="65" height="40" as="geometry" />
        </mxCell>
        <mxCell id="x4MhJtF7cWT3_IlsjIcO-143" value="" style="ellipse;shape=endState;fillColor=#000000;strokeColor=#ff0000" vertex="1" parent="2">
          <mxGeometry x="83" y="342" width="30" height="30" as="geometry" />
        </mxCell>
        <mxCell id="x4MhJtF7cWT3_IlsjIcO-144" value="" style="edgeStyle=elbowEdgeStyle;elbow=horizontal;verticalAlign=bottom;endArrow=open;endSize=8;strokeColor=#FF0000;endFill=1;rounded=0;entryX=0.5;entryY=0;entryDx=0;entryDy=0;exitX=0.5;exitY=1;exitDx=0;exitDy=0;" edge="1" parent="2" source="x4MhJtF7cWT3_IlsjIcO-137" target="x4MhJtF7cWT3_IlsjIcO-143">
          <mxGeometry x="-238" y="-432" as="geometry">
            <mxPoint x="185.5" y="109.5" as="targetPoint" />
            <mxPoint x="140.5" y="109.5" as="sourcePoint" />
            <Array as="points">
              <mxPoint x="98" y="322" />
            </Array>
          </mxGeometry>
        </mxCell>
        <mxCell id="x4MhJtF7cWT3_IlsjIcO-145" value="" style="edgeStyle=elbowEdgeStyle;elbow=horizontal;verticalAlign=bottom;endArrow=open;endSize=8;strokeColor=#FF0000;endFill=1;rounded=0;entryX=0.5;entryY=0;entryDx=0;entryDy=0;exitX=0.5;exitY=1;exitDx=0;exitDy=0;" edge="1" parent="2" source="x4MhJtF7cWT3_IlsjIcO-127" target="x4MhJtF7cWT3_IlsjIcO-137">
          <mxGeometry x="-238" y="-432" as="geometry">
            <mxPoint x="185.5" y="109.5" as="targetPoint" />
            <mxPoint x="140.5" y="109.5" as="sourcePoint" />
            <Array as="points">
              <mxPoint x="98" y="212" />
            </Array>
          </mxGeometry>
        </mxCell>
        <mxCell id="x4MhJtF7cWT3_IlsjIcO-146" value="" style="edgeStyle=elbowEdgeStyle;elbow=horizontal;verticalAlign=bottom;endArrow=open;endSize=8;strokeColor=#FF0000;endFill=1;rounded=0;entryX=1;entryY=0.5;entryDx=0;entryDy=0;exitX=0.5;exitY=1;exitDx=0;exitDy=0;" edge="1" parent="2" source="x4MhJtF7cWT3_IlsjIcO-90" target="x4MhJtF7cWT3_IlsjIcO-137">
          <mxGeometry x="-392.5" y="-550" as="geometry">
            <mxPoint x="108" y="275.0000000000001" as="targetPoint" />
            <mxPoint x="108" y="169.5" as="sourcePoint" />
            <Array as="points">
              <mxPoint x="216" y="202" />
            </Array>
          </mxGeometry>
        </mxCell>
        <mxCell id="x4MhJtF7cWT3_IlsjIcO-148" value="N" style="text;html=1;strokeColor=none;fillColor=none;align=center;verticalAlign=middle;whiteSpace=wrap;rounded=0;" vertex="1" parent="2">
          <mxGeometry x="255.5" y="79.5" width="40" height="20" as="geometry" />
        </mxCell>
        <mxCell id="x4MhJtF7cWT3_IlsjIcO-147" value="Y" style="text;html=1;strokeColor=none;fillColor=none;align=center;verticalAlign=middle;whiteSpace=wrap;rounded=0;" vertex="1" parent="2">
          <mxGeometry x="175.5" y="182" width="40" height="20" as="geometry" />
        </mxCell>
        <mxCell id="3" value="Registry" style="swimlane;whiteSpace=wrap" parent="1" vertex="1">
          <mxGeometry x="470" y="128" width="280" height="570" as="geometry" />
        </mxCell>
        <mxCell id="x4MhJtF7cWT3_IlsjIcO-135" value="Sign Up" style="" vertex="1" parent="3">
          <mxGeometry x="30" y="79" width="65" height="40" as="geometry" />
        </mxCell>
        <mxCell id="38" value="" style="ellipse;shape=endState;fillColor=#000000;strokeColor=#ff0000" parent="3" vertex="1">
          <mxGeometry x="125" y="84.5" width="30" height="30" as="geometry" />
        </mxCell>
        <mxCell id="x4MhJtF7cWT3_IlsjIcO-136" value="" style="edgeStyle=elbowEdgeStyle;elbow=horizontal;verticalAlign=bottom;endArrow=open;endSize=8;strokeColor=#FF0000;endFill=1;rounded=0;entryX=0;entryY=0.5;entryDx=0;entryDy=0;exitX=1;exitY=0.5;exitDx=0;exitDy=0;" edge="1" parent="3" source="x4MhJtF7cWT3_IlsjIcO-135" target="38">
          <mxGeometry x="-583" y="-560.29" as="geometry">
            <mxPoint x="40" y="109" as="targetPoint" />
            <mxPoint x="125" y="142" as="sourcePoint" />
            <Array as="points">
              <mxPoint x="110" y="100" />
            </Array>
          </mxGeometry>
        </mxCell>
        <mxCell id="x4MhJtF7cWT3_IlsjIcO-107" value="Admin" style="shape=umlActor;verticalLabelPosition=bottom;verticalAlign=top;html=1;outlineConnect=0;" vertex="1" parent="3">
          <mxGeometry x="40" y="185" width="30" height="60" as="geometry" />
        </mxCell>
        <mxCell id="x4MhJtF7cWT3_IlsjIcO-54" value="Main" style="swimlane;whiteSpace=wrap" vertex="1" parent="1">
          <mxGeometry x="-115.5" y="128" width="280" height="570" as="geometry" />
        </mxCell>
        <mxCell id="x4MhJtF7cWT3_IlsjIcO-59" value="Member" style="shape=umlActor;verticalLabelPosition=bottom;verticalAlign=top;html=1;outlineConnect=0;" vertex="1" parent="x4MhJtF7cWT3_IlsjIcO-54">
          <mxGeometry x="125" y="32" width="30" height="60" as="geometry" />
        </mxCell>
        <mxCell id="x4MhJtF7cWT3_IlsjIcO-65" value="" style="edgeStyle=elbowEdgeStyle;elbow=horizontal;verticalAlign=bottom;endArrow=open;endSize=8;strokeColor=#FF0000;endFill=1;rounded=0;entryX=0.5;entryY=0;entryDx=0;entryDy=0;" edge="1" parent="x4MhJtF7cWT3_IlsjIcO-54" target="x4MhJtF7cWT3_IlsjIcO-89">
          <mxGeometry x="225.5" y="-78" as="geometry">
            <mxPoint x="155.5" y="252" as="targetPoint" />
            <mxPoint x="140.5" y="112" as="sourcePoint" />
          </mxGeometry>
        </mxCell>
        <mxCell id="x4MhJtF7cWT3_IlsjIcO-89" value="Login&#xa;Status" style="rhombus;fillColor=#ffffc0;strokeColor=#ff0000;" vertex="1" parent="x4MhJtF7cWT3_IlsjIcO-54">
          <mxGeometry x="100" y="265" width="80" height="40" as="geometry" />
        </mxCell>
        <mxCell id="x4MhJtF7cWT3_IlsjIcO-149" value="N" style="text;html=1;strokeColor=none;fillColor=none;align=center;verticalAlign=middle;whiteSpace=wrap;rounded=0;" vertex="1" parent="x4MhJtF7cWT3_IlsjIcO-54">
          <mxGeometry x="140" y="258" width="40" height="20" as="geometry" />
        </mxCell>
        <mxCell id="x4MhJtF7cWT3_IlsjIcO-150" value="Y" style="text;html=1;strokeColor=none;fillColor=none;align=center;verticalAlign=middle;whiteSpace=wrap;rounded=0;" vertex="1" parent="x4MhJtF7cWT3_IlsjIcO-54">
          <mxGeometry x="98.88" y="258" width="40" height="20" as="geometry" />
        </mxCell>
        <mxCell id="x4MhJtF7cWT3_IlsjIcO-151" value="" style="shape=line;strokeWidth=6;strokeColor=#ff0000;rotation=-90;" vertex="1" parent="x4MhJtF7cWT3_IlsjIcO-54">
          <mxGeometry x="25.5" y="278" width="82.25" height="15" as="geometry" />
        </mxCell>
        <mxCell id="x4MhJtF7cWT3_IlsjIcO-152" value="" style="shape=line;strokeWidth=6;strokeColor=#ff0000;rotation=-90;" vertex="1" parent="x4MhJtF7cWT3_IlsjIcO-54">
          <mxGeometry x="173.25" y="278" width="82.25" height="15" as="geometry" />
        </mxCell>
        <mxCell id="x4MhJtF7cWT3_IlsjIcO-153" value="" style="edgeStyle=elbowEdgeStyle;elbow=horizontal;verticalAlign=bottom;endArrow=open;endSize=8;strokeColor=#FF0000;endFill=1;rounded=0;exitX=1;exitY=0.5;exitDx=0;exitDy=0;entryX=0.511;entryY=0.571;entryDx=0;entryDy=0;entryPerimeter=0;" edge="1" parent="x4MhJtF7cWT3_IlsjIcO-54" source="x4MhJtF7cWT3_IlsjIcO-89" target="x4MhJtF7cWT3_IlsjIcO-152">
          <mxGeometry x="351" y="-196" as="geometry">
            <mxPoint x="205.5" y="285" as="targetPoint" />
            <mxPoint x="150.5" y="122" as="sourcePoint" />
          </mxGeometry>
        </mxCell>
        <mxCell id="x4MhJtF7cWT3_IlsjIcO-154" value="" style="edgeStyle=elbowEdgeStyle;elbow=horizontal;verticalAlign=bottom;endArrow=open;endSize=8;strokeColor=#FF0000;endFill=1;rounded=0;exitX=0;exitY=0.5;exitDx=0;exitDy=0;entryX=0.506;entryY=0.425;entryDx=0;entryDy=0;entryPerimeter=0;" edge="1" parent="x4MhJtF7cWT3_IlsjIcO-54" source="x4MhJtF7cWT3_IlsjIcO-89" target="x4MhJtF7cWT3_IlsjIcO-151">
          <mxGeometry x="476.5" y="-314" as="geometry">
            <mxPoint x="225.44000000000005" y="294.5952500000001" as="targetPoint" />
            <mxPoint x="190" y="294.9999999999999" as="sourcePoint" />
          </mxGeometry>
        </mxCell>
        <mxCell id="x4MhJtF7cWT3_IlsjIcO-69" value="Board" style="swimlane;whiteSpace=wrap;startSize=23;" vertex="1" parent="1">
          <mxGeometry x="-675.5" y="128" width="280" height="570" as="geometry" />
        </mxCell>
        <mxCell id="x4MhJtF7cWT3_IlsjIcO-94" value="Board List" style="" vertex="1" parent="x4MhJtF7cWT3_IlsjIcO-69">
          <mxGeometry x="107.5" y="52" width="65" height="40" as="geometry" />
        </mxCell>
        <mxCell id="x4MhJtF7cWT3_IlsjIcO-95" value="Content" style="" vertex="1" parent="x4MhJtF7cWT3_IlsjIcO-69">
          <mxGeometry x="107.5" y="112" width="65" height="40" as="geometry" />
        </mxCell>
        <mxCell id="x4MhJtF7cWT3_IlsjIcO-96" value="Write" style="" vertex="1" parent="x4MhJtF7cWT3_IlsjIcO-69">
          <mxGeometry x="15.5" y="52" width="65" height="40" as="geometry" />
        </mxCell>
        <mxCell id="x4MhJtF7cWT3_IlsjIcO-97" value="Modify" style="" vertex="1" parent="x4MhJtF7cWT3_IlsjIcO-69">
          <mxGeometry x="107.5" y="172" width="65" height="40" as="geometry" />
        </mxCell>
        <mxCell id="x4MhJtF7cWT3_IlsjIcO-158" value="" style="edgeStyle=elbowEdgeStyle;elbow=horizontal;verticalAlign=bottom;endArrow=open;endSize=8;strokeColor=#FF0000;endFill=1;rounded=0;entryX=0.5;entryY=0;entryDx=0;entryDy=0;exitX=0.5;exitY=1;exitDx=0;exitDy=0;" edge="1" parent="x4MhJtF7cWT3_IlsjIcO-69" source="x4MhJtF7cWT3_IlsjIcO-94" target="x4MhJtF7cWT3_IlsjIcO-95">
          <mxGeometry x="911" y="-196" as="geometry">
            <mxPoint x="710" y="275" as="targetPoint" />
            <mxPoint x="710.5" y="122" as="sourcePoint" />
          </mxGeometry>
        </mxCell>
        <mxCell id="x4MhJtF7cWT3_IlsjIcO-79" value="Shopping" style="swimlane;whiteSpace=wrap;startSize=23;" vertex="1" parent="1">
          <mxGeometry x="-955.5" y="128" width="280" height="570" as="geometry" />
        </mxCell>
        <mxCell id="x4MhJtF7cWT3_IlsjIcO-98" value="Product List" style="" vertex="1" parent="x4MhJtF7cWT3_IlsjIcO-79">
          <mxGeometry x="107.5" y="52" width="65" height="40" as="geometry" />
        </mxCell>
        <mxCell id="x4MhJtF7cWT3_IlsjIcO-99" value="Content" style="" vertex="1" parent="x4MhJtF7cWT3_IlsjIcO-79">
          <mxGeometry x="107.5" y="112" width="65" height="40" as="geometry" />
        </mxCell>
        <mxCell id="x4MhJtF7cWT3_IlsjIcO-100" value="Order" style="" vertex="1" parent="x4MhJtF7cWT3_IlsjIcO-79">
          <mxGeometry x="107.5" y="232" width="65" height="40" as="geometry" />
        </mxCell>
        <mxCell id="x4MhJtF7cWT3_IlsjIcO-101" value="Cart" style="" vertex="1" parent="x4MhJtF7cWT3_IlsjIcO-79">
          <mxGeometry x="45.5" y="352" width="65" height="40" as="geometry" />
        </mxCell>
        <mxCell id="x4MhJtF7cWT3_IlsjIcO-102" value="Each" style="" vertex="1" parent="x4MhJtF7cWT3_IlsjIcO-79">
          <mxGeometry x="140.5" y="352" width="65" height="40" as="geometry" />
        </mxCell>
        <mxCell id="x4MhJtF7cWT3_IlsjIcO-103" value="payment" style="" vertex="1" parent="x4MhJtF7cWT3_IlsjIcO-79">
          <mxGeometry x="85.5" y="432" width="65" height="40" as="geometry" />
        </mxCell>
        <mxCell id="x4MhJtF7cWT3_IlsjIcO-106" value="Seller" style="shape=umlActor;verticalLabelPosition=bottom;verticalAlign=top;html=1;outlineConnect=0;" vertex="1" parent="x4MhJtF7cWT3_IlsjIcO-79">
          <mxGeometry x="25.5" y="42" width="30" height="60" as="geometry" />
        </mxCell>
        <mxCell id="x4MhJtF7cWT3_IlsjIcO-91" value="" style="edgeStyle=elbowEdgeStyle;elbow=horizontal;strokeColor=#FF0000;endArrow=open;endFill=1;rounded=0;entryX=0.495;entryY=0.482;entryDx=0;entryDy=0;entryPerimeter=0;exitX=0.75;exitY=0.5;exitDx=0;exitDy=0;exitPerimeter=0;" edge="1" parent="1" source="x4MhJtF7cWT3_IlsjIcO-152" target="x4MhJtF7cWT3_IlsjIcO-92">
          <mxGeometry width="100" height="100" relative="1" as="geometry">
            <mxPoint x="130" y="380" as="sourcePoint" />
            <mxPoint x="190" y="250" as="targetPoint" />
            <Array as="points">
              <mxPoint x="180" y="320" />
            </Array>
          </mxGeometry>
        </mxCell>
        <mxCell id="x4MhJtF7cWT3_IlsjIcO-121" value="My Page" style="swimlane;whiteSpace=wrap;startSize=23;" vertex="1" parent="1">
          <mxGeometry x="-395.5" y="128" width="280" height="570" as="geometry" />
        </mxCell>
        <mxCell id="x4MhJtF7cWT3_IlsjIcO-122" value="Main" style="" vertex="1" parent="x4MhJtF7cWT3_IlsjIcO-121">
          <mxGeometry x="107.5" y="52" width="65" height="40" as="geometry" />
        </mxCell>
        <mxCell id="x4MhJtF7cWT3_IlsjIcO-123" value="Content" style="" vertex="1" parent="x4MhJtF7cWT3_IlsjIcO-121">
          <mxGeometry x="107.5" y="112" width="65" height="40" as="geometry" />
        </mxCell>
        <mxCell id="x4MhJtF7cWT3_IlsjIcO-124" value="Write" style="" vertex="1" parent="x4MhJtF7cWT3_IlsjIcO-121">
          <mxGeometry x="15.5" y="52" width="65" height="40" as="geometry" />
        </mxCell>
        <mxCell id="x4MhJtF7cWT3_IlsjIcO-125" value="Modify" style="" vertex="1" parent="x4MhJtF7cWT3_IlsjIcO-121">
          <mxGeometry x="107.5" y="172" width="65" height="40" as="geometry" />
        </mxCell>
        <mxCell id="x4MhJtF7cWT3_IlsjIcO-142" value="" style="edgeStyle=elbowEdgeStyle;elbow=horizontal;verticalAlign=bottom;endArrow=open;endSize=8;strokeColor=#FF0000;endFill=1;rounded=0;entryX=1;entryY=0.5;entryDx=0;entryDy=0;exitX=0.75;exitY=0.5;exitDx=0;exitDy=0;exitPerimeter=0;" edge="1" parent="1" source="x4MhJtF7cWT3_IlsjIcO-151" target="x4MhJtF7cWT3_IlsjIcO-122">
          <mxGeometry x="361" y="-186" as="geometry">
            <mxPoint x="54.5" y="413" as="targetPoint" />
            <mxPoint x="-60" y="413" as="sourcePoint" />
            <Array as="points">
              <mxPoint x="-130" y="310" />
            </Array>
          </mxGeometry>
        </mxCell>
        <mxCell id="x4MhJtF7cWT3_IlsjIcO-155" value="" style="edgeStyle=elbowEdgeStyle;elbow=horizontal;verticalAlign=bottom;endArrow=open;endSize=8;strokeColor=#FF0000;endFill=1;rounded=0;entryX=1;entryY=0.5;entryDx=0;entryDy=0;exitX=0.499;exitY=0.531;exitDx=0;exitDy=0;exitPerimeter=0;" edge="1" parent="1" source="x4MhJtF7cWT3_IlsjIcO-152" target="x4MhJtF7cWT3_IlsjIcO-94">
          <mxGeometry x="371" y="-176" as="geometry">
            <mxPoint x="-213" y="210" as="targetPoint" />
            <mxPoint x="120" y="470" as="sourcePoint" />
            <Array as="points">
              <mxPoint x="-410" y="370" />
              <mxPoint x="-480" y="470" />
              <mxPoint x="70" y="470" />
              <mxPoint x="120" y="510" />
              <mxPoint x="140" y="510" />
            </Array>
          </mxGeometry>
        </mxCell>
        <mxCell id="x4MhJtF7cWT3_IlsjIcO-156" value="" style="edgeStyle=elbowEdgeStyle;elbow=horizontal;verticalAlign=bottom;endArrow=open;endSize=8;strokeColor=#FF0000;endFill=1;rounded=0;entryX=1;entryY=0.5;entryDx=0;entryDy=0;exitX=0.25;exitY=0.5;exitDx=0;exitDy=0;exitPerimeter=0;" edge="1" parent="1" source="x4MhJtF7cWT3_IlsjIcO-152" target="x4MhJtF7cWT3_IlsjIcO-98">
          <mxGeometry x="381" y="-166" as="geometry">
            <mxPoint x="-493" y="210" as="targetPoint" />
            <mxPoint x="109.34000000000015" y="423.58225000000016" as="sourcePoint" />
            <Array as="points">
              <mxPoint x="-690" y="380" />
              <mxPoint x="-700" y="470" />
              <mxPoint x="80" y="480" />
              <mxPoint x="130" y="520" />
              <mxPoint x="150" y="520" />
            </Array>
          </mxGeometry>
        </mxCell>
      </root>
    </mxGraphModel>
  </diagram>
</mxfile>
